<mxfile host="Electron" modified="2024-04-19T13:27:11.402Z" agent="Mozilla/5.0 (Windows NT 10.0; Win64; x64) AppleWebKit/537.36 (KHTML, like Gecko) draw.io/24.1.0 Chrome/120.0.6099.109 Electron/28.1.0 Safari/537.36" etag="97kuuAfAr3uAYsdH76bp" version="24.1.0" type="device">
  <diagram name="Page-1" id="i5wA4UtgZyYHLZMPYYb3">
    <mxGraphModel dx="1098" dy="820" grid="1" gridSize="10" guides="1" tooltips="1" connect="1" arrows="1" fold="1" page="1" pageScale="1" pageWidth="827" pageHeight="1169" math="0" shadow="0">
      <root>
        <mxCell id="0" />
        <mxCell id="1" parent="0" />
        <mxCell id="xXysXHjdpCMpI9S7gAsm-1" style="edgeStyle=orthogonalEdgeStyle;rounded=0;orthogonalLoop=1;jettySize=auto;html=1;exitX=0.5;exitY=1;exitDx=0;exitDy=0;entryX=0.5;entryY=0;entryDx=0;entryDy=0;" edge="1" parent="1" source="xXysXHjdpCMpI9S7gAsm-2" target="xXysXHjdpCMpI9S7gAsm-6">
          <mxGeometry relative="1" as="geometry" />
        </mxCell>
        <mxCell id="xXysXHjdpCMpI9S7gAsm-2" value="Setup/ Initialisation" style="shape=process;whiteSpace=wrap;html=1;backgroundOutline=1;" vertex="1" parent="1">
          <mxGeometry x="40" y="80" width="120" height="40" as="geometry" />
        </mxCell>
        <mxCell id="xXysXHjdpCMpI9S7gAsm-3" value="Dash Node" style="text;html=1;align=center;verticalAlign=middle;whiteSpace=wrap;rounded=0;" vertex="1" parent="1">
          <mxGeometry x="70" y="40" width="60" height="30" as="geometry" />
        </mxCell>
        <mxCell id="xXysXHjdpCMpI9S7gAsm-4" style="edgeStyle=orthogonalEdgeStyle;rounded=0;orthogonalLoop=1;jettySize=auto;html=1;exitX=1;exitY=0.5;exitDx=0;exitDy=0;" edge="1" parent="1" source="xXysXHjdpCMpI9S7gAsm-6" target="xXysXHjdpCMpI9S7gAsm-8">
          <mxGeometry relative="1" as="geometry" />
        </mxCell>
        <mxCell id="xXysXHjdpCMpI9S7gAsm-5" style="edgeStyle=orthogonalEdgeStyle;rounded=0;orthogonalLoop=1;jettySize=auto;html=1;exitX=0.5;exitY=1;exitDx=0;exitDy=0;entryX=0.5;entryY=0;entryDx=0;entryDy=0;" edge="1" parent="1" source="xXysXHjdpCMpI9S7gAsm-6" target="xXysXHjdpCMpI9S7gAsm-14">
          <mxGeometry relative="1" as="geometry" />
        </mxCell>
        <mxCell id="xXysXHjdpCMpI9S7gAsm-6" value="CANBtn&lt;div&gt;pressed&lt;/div&gt;&lt;div&gt;?&lt;/div&gt;" style="rhombus;whiteSpace=wrap;html=1;" vertex="1" parent="1">
          <mxGeometry x="60" y="140" width="80" height="80" as="geometry" />
        </mxCell>
        <mxCell id="xXysXHjdpCMpI9S7gAsm-7" style="edgeStyle=orthogonalEdgeStyle;rounded=0;orthogonalLoop=1;jettySize=auto;html=1;exitX=0.5;exitY=1;exitDx=0;exitDy=0;entryX=0.5;entryY=0;entryDx=0;entryDy=0;" edge="1" parent="1" source="xXysXHjdpCMpI9S7gAsm-8" target="xXysXHjdpCMpI9S7gAsm-11">
          <mxGeometry relative="1" as="geometry" />
        </mxCell>
        <mxCell id="xXysXHjdpCMpI9S7gAsm-8" value="Transmit CAN 0x0F, dlc8,&lt;div&gt;data[0x01]&lt;/div&gt;" style="rounded=0;whiteSpace=wrap;html=1;" vertex="1" parent="1">
          <mxGeometry x="200" y="160" width="160" height="40" as="geometry" />
        </mxCell>
        <mxCell id="xXysXHjdpCMpI9S7gAsm-9" value="Y" style="text;html=1;align=center;verticalAlign=middle;whiteSpace=wrap;rounded=0;" vertex="1" parent="1">
          <mxGeometry x="120" y="150" width="60" height="30" as="geometry" />
        </mxCell>
        <mxCell id="xXysXHjdpCMpI9S7gAsm-10" style="edgeStyle=orthogonalEdgeStyle;rounded=0;orthogonalLoop=1;jettySize=auto;html=1;exitX=0.5;exitY=1;exitDx=0;exitDy=0;entryX=0.5;entryY=0;entryDx=0;entryDy=0;" edge="1" parent="1" source="xXysXHjdpCMpI9S7gAsm-11" target="xXysXHjdpCMpI9S7gAsm-14">
          <mxGeometry relative="1" as="geometry">
            <Array as="points">
              <mxPoint x="280" y="270" />
              <mxPoint x="100" y="270" />
            </Array>
          </mxGeometry>
        </mxCell>
        <mxCell id="xXysXHjdpCMpI9S7gAsm-11" value="Output msg to serial monitor (debugging)" style="rounded=0;whiteSpace=wrap;html=1;" vertex="1" parent="1">
          <mxGeometry x="200" y="220" width="160" height="40" as="geometry" />
        </mxCell>
        <mxCell id="xXysXHjdpCMpI9S7gAsm-12" style="edgeStyle=orthogonalEdgeStyle;rounded=0;orthogonalLoop=1;jettySize=auto;html=1;exitX=1;exitY=0.5;exitDx=0;exitDy=0;entryX=0;entryY=0.5;entryDx=0;entryDy=0;" edge="1" parent="1" source="xXysXHjdpCMpI9S7gAsm-14" target="xXysXHjdpCMpI9S7gAsm-16">
          <mxGeometry relative="1" as="geometry" />
        </mxCell>
        <mxCell id="xXysXHjdpCMpI9S7gAsm-13" style="edgeStyle=orthogonalEdgeStyle;rounded=0;orthogonalLoop=1;jettySize=auto;html=1;exitX=0.5;exitY=1;exitDx=0;exitDy=0;entryX=0;entryY=0.5;entryDx=0;entryDy=0;" edge="1" parent="1" source="xXysXHjdpCMpI9S7gAsm-14" target="xXysXHjdpCMpI9S7gAsm-6">
          <mxGeometry relative="1" as="geometry" />
        </mxCell>
        <mxCell id="xXysXHjdpCMpI9S7gAsm-14" value="CAN msg&lt;div&gt;received&lt;/div&gt;&lt;div&gt;?&lt;/div&gt;" style="rhombus;whiteSpace=wrap;html=1;" vertex="1" parent="1">
          <mxGeometry x="60" y="290" width="80" height="80" as="geometry" />
        </mxCell>
        <mxCell id="xXysXHjdpCMpI9S7gAsm-15" style="edgeStyle=orthogonalEdgeStyle;rounded=0;orthogonalLoop=1;jettySize=auto;html=1;exitX=0.5;exitY=1;exitDx=0;exitDy=0;entryX=0.5;entryY=0;entryDx=0;entryDy=0;" edge="1" parent="1" source="xXysXHjdpCMpI9S7gAsm-16" target="xXysXHjdpCMpI9S7gAsm-20">
          <mxGeometry relative="1" as="geometry" />
        </mxCell>
        <mxCell id="xXysXHjdpCMpI9S7gAsm-16" value="Output msg to serial monitor (debugging)" style="rounded=0;whiteSpace=wrap;html=1;" vertex="1" parent="1">
          <mxGeometry x="200" y="310" width="160" height="40" as="geometry" />
        </mxCell>
        <mxCell id="xXysXHjdpCMpI9S7gAsm-17" value="N" style="text;html=1;align=center;verticalAlign=middle;whiteSpace=wrap;rounded=0;" vertex="1" parent="1">
          <mxGeometry x="40" y="200" width="60" height="30" as="geometry" />
        </mxCell>
        <mxCell id="xXysXHjdpCMpI9S7gAsm-18" style="edgeStyle=orthogonalEdgeStyle;rounded=0;orthogonalLoop=1;jettySize=auto;html=1;exitX=0.5;exitY=1;exitDx=0;exitDy=0;entryX=0.5;entryY=0;entryDx=0;entryDy=0;" edge="1" parent="1" source="xXysXHjdpCMpI9S7gAsm-20" target="xXysXHjdpCMpI9S7gAsm-25">
          <mxGeometry relative="1" as="geometry" />
        </mxCell>
        <mxCell id="xXysXHjdpCMpI9S7gAsm-19" style="edgeStyle=orthogonalEdgeStyle;rounded=0;orthogonalLoop=1;jettySize=auto;html=1;exitX=1;exitY=0.5;exitDx=0;exitDy=0;entryX=0;entryY=0.5;entryDx=0;entryDy=0;" edge="1" parent="1" source="xXysXHjdpCMpI9S7gAsm-20" target="xXysXHjdpCMpI9S7gAsm-23">
          <mxGeometry relative="1" as="geometry" />
        </mxCell>
        <mxCell id="xXysXHjdpCMpI9S7gAsm-20" value="CAN id&lt;div&gt;== 0xAA&lt;/div&gt;&lt;div&gt;?&lt;/div&gt;" style="rhombus;whiteSpace=wrap;html=1;" vertex="1" parent="1">
          <mxGeometry x="240" y="370" width="80" height="80" as="geometry" />
        </mxCell>
        <mxCell id="xXysXHjdpCMpI9S7gAsm-21" style="edgeStyle=orthogonalEdgeStyle;rounded=0;orthogonalLoop=1;jettySize=auto;html=1;exitX=0.5;exitY=1;exitDx=0;exitDy=0;entryX=0.5;entryY=0;entryDx=0;entryDy=0;" edge="1" parent="1" source="xXysXHjdpCMpI9S7gAsm-23" target="xXysXHjdpCMpI9S7gAsm-29">
          <mxGeometry relative="1" as="geometry" />
        </mxCell>
        <mxCell id="xXysXHjdpCMpI9S7gAsm-22" style="edgeStyle=orthogonalEdgeStyle;rounded=0;orthogonalLoop=1;jettySize=auto;html=1;exitX=1;exitY=0.5;exitDx=0;exitDy=0;entryX=0;entryY=0.5;entryDx=0;entryDy=0;" edge="1" parent="1" source="xXysXHjdpCMpI9S7gAsm-23" target="xXysXHjdpCMpI9S7gAsm-6">
          <mxGeometry relative="1" as="geometry">
            <Array as="points">
              <mxPoint x="580" y="410" />
              <mxPoint x="580" y="600" />
              <mxPoint x="40" y="600" />
              <mxPoint x="40" y="180" />
            </Array>
          </mxGeometry>
        </mxCell>
        <mxCell id="xXysXHjdpCMpI9S7gAsm-23" value="CAN id&lt;div&gt;== 0xAB&lt;/div&gt;&lt;div&gt;?&lt;/div&gt;" style="rhombus;whiteSpace=wrap;html=1;" vertex="1" parent="1">
          <mxGeometry x="440" y="370" width="80" height="80" as="geometry" />
        </mxCell>
        <mxCell id="xXysXHjdpCMpI9S7gAsm-24" style="edgeStyle=orthogonalEdgeStyle;rounded=0;orthogonalLoop=1;jettySize=auto;html=1;exitX=0.5;exitY=1;exitDx=0;exitDy=0;entryX=0.5;entryY=0;entryDx=0;entryDy=0;" edge="1" parent="1" source="xXysXHjdpCMpI9S7gAsm-25" target="xXysXHjdpCMpI9S7gAsm-27">
          <mxGeometry relative="1" as="geometry" />
        </mxCell>
        <mxCell id="xXysXHjdpCMpI9S7gAsm-25" value="Output distance to serial monitor" style="rounded=0;whiteSpace=wrap;html=1;" vertex="1" parent="1">
          <mxGeometry x="200" y="470" width="160" height="40" as="geometry" />
        </mxCell>
        <mxCell id="xXysXHjdpCMpI9S7gAsm-26" style="edgeStyle=orthogonalEdgeStyle;rounded=0;orthogonalLoop=1;jettySize=auto;html=1;exitX=0.5;exitY=1;exitDx=0;exitDy=0;entryX=0;entryY=0.5;entryDx=0;entryDy=0;" edge="1" parent="1" source="xXysXHjdpCMpI9S7gAsm-27" target="xXysXHjdpCMpI9S7gAsm-6">
          <mxGeometry relative="1" as="geometry">
            <Array as="points">
              <mxPoint x="280" y="600" />
              <mxPoint x="40" y="600" />
              <mxPoint x="40" y="180" />
            </Array>
          </mxGeometry>
        </mxCell>
        <mxCell id="xXysXHjdpCMpI9S7gAsm-27" value="Display disance on LCD screen" style="rounded=0;whiteSpace=wrap;html=1;" vertex="1" parent="1">
          <mxGeometry x="200" y="530" width="160" height="40" as="geometry" />
        </mxCell>
        <mxCell id="xXysXHjdpCMpI9S7gAsm-28" style="edgeStyle=orthogonalEdgeStyle;rounded=0;orthogonalLoop=1;jettySize=auto;html=1;exitX=0.5;exitY=1;exitDx=0;exitDy=0;entryX=0.5;entryY=0;entryDx=0;entryDy=0;" edge="1" parent="1" source="xXysXHjdpCMpI9S7gAsm-29" target="xXysXHjdpCMpI9S7gAsm-31">
          <mxGeometry relative="1" as="geometry" />
        </mxCell>
        <mxCell id="xXysXHjdpCMpI9S7gAsm-29" value="Copy data into float" style="rounded=0;whiteSpace=wrap;html=1;" vertex="1" parent="1">
          <mxGeometry x="400" y="470" width="160" height="40" as="geometry" />
        </mxCell>
        <mxCell id="xXysXHjdpCMpI9S7gAsm-30" style="edgeStyle=orthogonalEdgeStyle;rounded=0;orthogonalLoop=1;jettySize=auto;html=1;exitX=0.5;exitY=1;exitDx=0;exitDy=0;entryX=0;entryY=0.5;entryDx=0;entryDy=0;" edge="1" parent="1" source="xXysXHjdpCMpI9S7gAsm-31" target="xXysXHjdpCMpI9S7gAsm-6">
          <mxGeometry relative="1" as="geometry">
            <Array as="points">
              <mxPoint x="480" y="600" />
              <mxPoint x="40" y="600" />
              <mxPoint x="40" y="180" />
            </Array>
          </mxGeometry>
        </mxCell>
        <mxCell id="xXysXHjdpCMpI9S7gAsm-31" value="Display Temperature/ Humidity on LCD screen" style="rounded=0;whiteSpace=wrap;html=1;" vertex="1" parent="1">
          <mxGeometry x="400" y="530" width="160" height="40" as="geometry" />
        </mxCell>
        <mxCell id="xXysXHjdpCMpI9S7gAsm-32" value="Y" style="text;html=1;align=center;verticalAlign=middle;whiteSpace=wrap;rounded=0;" vertex="1" parent="1">
          <mxGeometry x="230" y="430" width="60" height="30" as="geometry" />
        </mxCell>
        <mxCell id="xXysXHjdpCMpI9S7gAsm-33" value="N" style="text;html=1;align=center;verticalAlign=middle;whiteSpace=wrap;rounded=0;" vertex="1" parent="1">
          <mxGeometry x="300" y="380" width="60" height="30" as="geometry" />
        </mxCell>
        <mxCell id="xXysXHjdpCMpI9S7gAsm-34" value="Y" style="text;html=1;align=center;verticalAlign=middle;whiteSpace=wrap;rounded=0;" vertex="1" parent="1">
          <mxGeometry x="420" y="430" width="60" height="30" as="geometry" />
        </mxCell>
        <mxCell id="xXysXHjdpCMpI9S7gAsm-35" value="Y" style="text;html=1;align=center;verticalAlign=middle;whiteSpace=wrap;rounded=0;" vertex="1" parent="1">
          <mxGeometry x="120" y="300" width="60" height="30" as="geometry" />
        </mxCell>
        <mxCell id="xXysXHjdpCMpI9S7gAsm-36" value="N" style="text;html=1;align=center;verticalAlign=middle;whiteSpace=wrap;rounded=0;" vertex="1" parent="1">
          <mxGeometry x="50" y="350" width="60" height="30" as="geometry" />
        </mxCell>
        <mxCell id="xXysXHjdpCMpI9S7gAsm-37" value="N" style="text;html=1;align=center;verticalAlign=middle;whiteSpace=wrap;rounded=0;" vertex="1" parent="1">
          <mxGeometry x="500" y="380" width="60" height="30" as="geometry" />
        </mxCell>
      </root>
    </mxGraphModel>
  </diagram>
</mxfile>
